<?xml version="1.0" encoding="UTF-8"?>
<svg version="1.1" xmlns="http://www.w3.org/2000/svg" width="50" height="50">
<path d="M0,0 L4,0 L4,1 L5,1 L5,2 L6,2 L6,3 L7,3 L7,4 L8,4 L8,5 L9,5 L9,6 L10,6 L10,7 L11,7 L11,8 L12,8 L12,9 L13,9 L13,10 L14,10 L14,11 L15,11 L15,12 L16,12 L16,13 L17,13 L17,14 L18,14 L18,15 L19,15 L19,17 L17,17 L17,16 L16,16 L16,15 L15,15 L15,28 L13,28 L13,12 L12,12 L12,11 L11,11 L11,10 L10,10 L10,9 L9,9 L9,8 L8,8 L8,7 L7,7 L7,6 L6,6 L6,5 L5,5 L5,4 L4,4 L4,3 L3,3 L3,2 L1,2 L1,3 L0,3 L0,4 L-1,4 L-1,5 L-2,5 L-2,6 L-3,6 L-3,7 L-4,7 L-4,8 L-5,8 L-5,9 L-6,9 L-6,10 L-7,10 L-7,11 L-8,11 L-8,12 L-9,12 L-9,28 L-11,28 L-11,15 L-12,15 L-12,16 L-13,16 L-13,17 L-15,17 L-15,15 L-14,15 L-14,14 L-13,14 L-13,13 L-12,13 L-12,12 L-11,12 L-11,11 L-10,11 L-10,10 L-9,10 L-9,9 L-8,9 L-8,8 L-7,8 L-7,7 L-6,7 L-6,6 L-5,6 L-5,5 L-4,5 L-4,4 L-3,4 L-3,3 L-2,3 L-2,2 L-1,2 L-1,1 L0,1 Z " fill="#222034" transform="translate(23,11)"/>
<path d="M0,0 L2,0 L2,11 L0,11 Z " fill="#222034" transform="translate(28,28)"/>
<path d="M0,0 L2,0 L2,11 L0,11 Z " fill="#222034" transform="translate(20,28)"/>
<path d="M0,0 L6,0 L6,2 L0,2 Z " fill="#222034" transform="translate(22,26)"/>
</svg>
